<svg width="77" height="89" viewBox="0 0 77 89" fill="none" xmlns="http://www.w3.org/2000/svg">
<rect x="7.56299" y="13.856" width="61.7442" height="61.7442" rx="30.8721" fill="#00E5FF"/>
<path d="M25.9623 59.728V54.6869H29.9604V34.3486H25.9623V29.3075H38.4782C42.5632 29.3075 45.6632 30.3505 47.7782 32.4364C49.9221 34.4935 50.9941 37.5645 50.9941 41.6495V47.386C50.9941 51.471 49.9221 54.5565 47.7782 56.6425C45.6632 58.6995 42.5632 59.728 38.4782 59.728H25.9623ZM35.6969 54.5131H38.5651C40.8828 54.5131 42.5777 53.9047 43.6497 52.6878C44.7216 51.471 45.2576 49.7617 45.2576 47.5598V41.4757C45.2576 39.2449 44.7216 37.5355 43.6497 36.3477C42.5777 35.1308 40.8828 34.5224 38.5651 34.5224H35.6969V54.5131Z" fill="white"/>
</svg>
