<svg width="50" height="45" viewBox="0 0 50 45" fill="none" xmlns="http://www.w3.org/2000/svg">
<path fill-rule="evenodd" clip-rule="evenodd" d="M9.56233 7.22437C4.41577 7.22437 0.243652 11.3965 0.243652 16.543V35.1804C0.243652 40.327 4.41576 44.4991 9.56233 44.4991H39.848C44.9946 44.4991 49.1667 40.327 49.1667 35.1804V32.8508H38.4502C36.6489 32.8508 35.1887 31.3905 35.1887 29.5892V24.464C35.1887 22.6627 36.6489 21.2024 38.4502 21.2024H49.1667V16.543C49.1667 11.3965 44.9946 7.22437 39.848 7.22437H9.56233Z" fill="black"/>
<mask id="path-2-inside-1_2_1059" fill="white">
<path d="M0.243652 11.3019C0.243652 6.38828 4.05894 2.31892 8.96239 2.00257L31.9493 0.519583C40.4695 -0.0300943 43.4728 11.5957 35.7523 15.2414V15.2414C32.6542 16.7044 30.8867 20.0303 31.4076 23.4166L31.4387 23.6188C32.1855 28.473 28.4298 32.8508 23.5184 32.8508H9.56234C4.41577 32.8508 0.243652 28.6787 0.243652 23.5321V11.3019Z"/>
</mask>
<path d="M31.4076 23.4166L33.7102 23.0624L31.4076 23.4166ZM31.4387 23.6188L29.1362 23.973L31.4387 23.6188ZM31.9493 0.519583L31.7993 -1.80525L31.9493 0.519583ZM8.96239 2.00257L9.11238 4.32741L8.96239 2.00257ZM9.11238 4.32741L32.0993 2.84442L31.7993 -1.80525L8.8124 -0.322263L9.11238 4.32741ZM23.5184 30.5211H9.56234V35.1804H23.5184V30.5211ZM2.57332 23.5321V11.3019H-2.08602V23.5321H2.57332ZM29.1051 23.7709L29.1362 23.973L33.7413 23.2645L33.7102 23.0624L29.1051 23.7709ZM34.7576 13.1348C30.7268 15.0382 28.4273 19.3652 29.1051 23.7709L33.7102 23.0624C33.3461 20.6954 34.5816 18.3706 36.7471 17.348L34.7576 13.1348ZM9.56234 30.5211C5.70241 30.5211 2.57332 27.392 2.57332 23.5321H-2.08602C-2.08602 29.9653 3.12913 35.1804 9.56234 35.1804V30.5211ZM23.5184 35.1804C29.8576 35.1804 34.7052 29.53 33.7413 23.2645L29.1362 23.973C29.6659 27.416 27.002 30.5211 23.5184 30.5211V35.1804ZM32.0993 2.84442C38.0548 2.4602 40.154 10.5865 34.7576 13.1348L36.7471 17.348C46.7915 12.6049 42.8841 -2.52039 31.7993 -1.80525L32.0993 2.84442ZM8.8124 -0.322263C2.68309 0.0731674 -2.08602 5.15987 -2.08602 11.3019H2.57332C2.57332 7.61669 5.43479 4.56467 9.11238 4.32741L8.8124 -0.322263Z" fill="black" mask="url(#path-2-inside-1_2_1059)"/>
<circle cx="43.9249" cy="26.9103" r="4.07692" fill="black"/>
</svg>
