<svg width="66" height="90" viewBox="0 0 66 90" fill="none" xmlns="http://www.w3.org/2000/svg">
<path d="M3.6031 75.2479L6.3631 64.7479H9.8131L12.5731 75.2479H10.5331L9.9631 72.9379H6.2131L5.6431 75.2479H3.6031ZM6.6781 71.1079H9.4981L8.2231 65.9929H7.9531L6.6781 71.1079ZM14.9114 75.2479V67.8079H16.8014V75.2479H14.9114ZM15.8564 66.9379C15.5164 66.9379 15.2264 66.8279 14.9864 66.6079C14.7564 66.3879 14.6414 66.0979 14.6414 65.7379C14.6414 65.3779 14.7564 65.0879 14.9864 64.8679C15.2264 64.6479 15.5164 64.5379 15.8564 64.5379C16.2064 64.5379 16.4964 64.6479 16.7264 64.8679C16.9564 65.0879 17.0714 65.3779 17.0714 65.7379C17.0714 66.0979 16.9564 66.3879 16.7264 66.6079C16.4964 66.8279 16.2064 66.9379 15.8564 66.9379ZM19.9173 75.2479V67.8079H21.7773V68.6479H22.0473C22.1573 68.3479 22.3373 68.1279 22.5873 67.9879C22.8473 67.8479 23.1473 67.7779 23.4873 67.7779H24.3873V69.4579H23.4573C22.9773 69.4579 22.5823 69.5879 22.2723 69.8479C21.9623 70.0979 21.8073 70.4879 21.8073 71.0179V75.2479H19.9173ZM29.6224 75.4579C29.0324 75.4579 28.4774 75.3129 27.9574 75.0229C27.4474 74.7229 27.0374 74.2879 26.7274 73.7179C26.4174 73.1479 26.2624 72.4579 26.2624 71.6479V71.4079C26.2624 70.5979 26.4174 69.9079 26.7274 69.3379C27.0374 68.7679 27.4474 68.3379 27.9574 68.0479C28.4674 67.7479 29.0224 67.5979 29.6224 67.5979C30.0724 67.5979 30.4474 67.6529 30.7474 67.7629C31.0574 67.8629 31.3074 67.9929 31.4974 68.1529C31.6874 68.3129 31.8324 68.4829 31.9324 68.6629H32.2024V64.7479H34.0924V75.2479H32.2324V74.3479H31.9624C31.7924 74.6279 31.5274 74.8829 31.1674 75.1129C30.8174 75.3429 30.3024 75.4579 29.6224 75.4579ZM30.1924 73.8079C30.7724 73.8079 31.2574 73.6229 31.6474 73.2529C32.0374 72.8729 32.2324 72.3229 32.2324 71.6029V71.4529C32.2324 70.7329 32.0374 70.1879 31.6474 69.8179C31.2674 69.4379 30.7824 69.2479 30.1924 69.2479C29.6124 69.2479 29.1274 69.4379 28.7374 69.8179C28.3474 70.1879 28.1524 70.7329 28.1524 71.4529V71.6029C28.1524 72.3229 28.3474 72.8729 28.7374 73.2529C29.1274 73.6229 29.6124 73.8079 30.1924 73.8079ZM37.2094 75.2479V67.8079H39.0694V68.6479H39.3394C39.4494 68.3479 39.6294 68.1279 39.8794 67.9879C40.1394 67.8479 40.4394 67.7779 40.7794 67.7779H41.6794V69.4579H40.7494C40.2694 69.4579 39.8744 69.5879 39.5644 69.8479C39.2544 70.0979 39.0994 70.4879 39.0994 71.0179V75.2479H37.2094ZM47.4545 75.4579C46.7145 75.4579 46.0495 75.3079 45.4595 75.0079C44.8695 74.7079 44.4045 74.2729 44.0645 73.7029C43.7245 73.1329 43.5545 72.4479 43.5545 71.6479V71.4079C43.5545 70.6079 43.7245 69.9229 44.0645 69.3529C44.4045 68.7829 44.8695 68.3479 45.4595 68.0479C46.0495 67.7479 46.7145 67.5979 47.4545 67.5979C48.1945 67.5979 48.8595 67.7479 49.4495 68.0479C50.0395 68.3479 50.5045 68.7829 50.8445 69.3529C51.1845 69.9229 51.3545 70.6079 51.3545 71.4079V71.6479C51.3545 72.4479 51.1845 73.1329 50.8445 73.7029C50.5045 74.2729 50.0395 74.7079 49.4495 75.0079C48.8595 75.3079 48.1945 75.4579 47.4545 75.4579ZM47.4545 73.7779C48.0345 73.7779 48.5145 73.5929 48.8945 73.2229C49.2745 72.8429 49.4645 72.3029 49.4645 71.6029V71.4529C49.4645 70.7529 49.2745 70.2179 48.8945 69.8479C48.5245 69.4679 48.0445 69.2779 47.4545 69.2779C46.8745 69.2779 46.3945 69.4679 46.0145 69.8479C45.6345 70.2179 45.4445 70.7529 45.4445 71.4529V71.6029C45.4445 72.3029 45.6345 72.8429 46.0145 73.2229C46.3945 73.5929 46.8745 73.7779 47.4545 73.7779ZM54.1206 78.2479V67.8079H55.9806V68.7079H56.2506C56.4206 68.4179 56.6856 68.1629 57.0456 67.9429C57.4056 67.7129 57.9206 67.5979 58.5906 67.5979C59.1906 67.5979 59.7456 67.7479 60.2556 68.0479C60.7656 68.3379 61.1756 68.7679 61.4856 69.3379C61.7956 69.9079 61.9506 70.5979 61.9506 71.4079V71.6479C61.9506 72.4579 61.7956 73.1479 61.4856 73.7179C61.1756 74.2879 60.7656 74.7229 60.2556 75.0229C59.7456 75.3129 59.1906 75.4579 58.5906 75.4579C58.1406 75.4579 57.7606 75.4029 57.4506 75.2929C57.1506 75.1929 56.9056 75.0629 56.7156 74.9029C56.5356 74.7329 56.3906 74.5629 56.2806 74.3929H56.0106V78.2479H54.1206ZM58.0206 73.8079C58.6106 73.8079 59.0956 73.6229 59.4756 73.2529C59.8656 72.8729 60.0606 72.3229 60.0606 71.6029V71.4529C60.0606 70.7329 59.8656 70.1879 59.4756 69.8179C59.0856 69.4379 58.6006 69.2479 58.0206 69.2479C57.4406 69.2479 56.9556 69.4379 56.5656 69.8179C56.1756 70.1879 55.9806 70.7329 55.9806 71.4529V71.6029C55.9806 72.3229 56.1756 72.8729 56.5656 73.2529C56.9556 73.6229 57.4406 73.8079 58.0206 73.8079Z" fill="#767676"/>
<path d="M17.19 27.356C18.49 26.2317 22.2074 24.4468 26.6767 26.302M17.19 27.356C17.5765 22.1559 21.1639 11.7556 32.4215 11.7556M17.19 27.356L32.4215 36.9482M26.6767 26.302C26.6767 26.302 28.1525 24.51 32.4215 24.51C36.6905 24.51 38.1662 26.302 38.1662 26.302M26.6767 26.302C26.9051 23.1397 28.3738 15.8033 32.4215 11.7556M26.6767 26.302L32.4215 36.9482M38.1662 26.302C38.1662 26.302 40.2744 25.1425 43.0677 25.1425C45.8611 25.1425 47.9692 26.302 47.9692 26.302M38.1662 26.302C38.1662 18.5439 34.3364 13.3719 32.4215 11.7556M38.1662 26.302L32.4215 36.9482M47.9692 26.302C47.4773 21.4532 43.6791 11.7556 32.4215 11.7556M47.9692 26.302L32.4215 36.9482" stroke="#767676" stroke-width="1.84772"/>
<path fill-rule="evenodd" clip-rule="evenodd" d="M32.3397 54.0655C37.6453 54.0655 41.9463 49.7645 41.9463 44.4589C41.9463 39.1533 37.6453 34.8523 32.3397 34.8523C27.0341 34.8523 22.7331 39.1533 22.7331 44.4589C22.7331 49.7645 27.0341 54.0655 32.3397 54.0655ZM38.4582 44.5623L32.4435 38.5476L26.4288 44.5623L32.4435 50.577L38.4582 44.5623Z" fill="#767676"/>
</svg>
