<svg width="66" height="90" viewBox="0 0 66 90" fill="none" xmlns="http://www.w3.org/2000/svg">
<path d="M11.1322 75.248V64.748H13.1122V69.083H17.0122V64.748H18.9922V75.248H17.0122V70.883H13.1122V75.248H11.1322ZM25.5975 75.458C24.8575 75.458 24.1925 75.308 23.6025 75.008C23.0125 74.708 22.5475 74.273 22.2075 73.703C21.8675 73.133 21.6975 72.448 21.6975 71.648V71.408C21.6975 70.608 21.8675 69.923 22.2075 69.353C22.5475 68.783 23.0125 68.348 23.6025 68.048C24.1925 67.748 24.8575 67.598 25.5975 67.598C26.3375 67.598 27.0025 67.748 27.5925 68.048C28.1825 68.348 28.6475 68.783 28.9875 69.353C29.3275 69.923 29.4975 70.608 29.4975 71.408V71.648C29.4975 72.448 29.3275 73.133 28.9875 73.703C28.6475 74.273 28.1825 74.708 27.5925 75.008C27.0025 75.308 26.3375 75.458 25.5975 75.458ZM25.5975 73.778C26.1775 73.778 26.6575 73.593 27.0375 73.223C27.4175 72.843 27.6075 72.303 27.6075 71.603V71.453C27.6075 70.753 27.4175 70.218 27.0375 69.848C26.6675 69.468 26.1875 69.278 25.5975 69.278C25.0175 69.278 24.5375 69.468 24.1575 69.848C23.7775 70.218 23.5875 70.753 23.5875 71.453V71.603C23.5875 72.303 23.7775 72.843 24.1575 73.223C24.5375 73.593 25.0175 73.778 25.5975 73.778ZM32.2635 75.248V67.808H34.1235V68.618H34.3935C34.5235 68.368 34.7385 68.153 35.0385 67.973C35.3385 67.783 35.7335 67.688 36.2235 67.688C36.7535 67.688 37.1785 67.793 37.4985 68.003C37.8185 68.203 38.0635 68.468 38.2335 68.798H38.5035C38.6735 68.478 38.9135 68.213 39.2235 68.003C39.5335 67.793 39.9735 67.688 40.5435 67.688C41.0035 67.688 41.4185 67.788 41.7885 67.988C42.1685 68.178 42.4685 68.473 42.6885 68.873C42.9185 69.263 43.0335 69.758 43.0335 70.358V75.248H41.1435V70.493C41.1435 70.083 41.0385 69.778 40.8285 69.578C40.6185 69.368 40.3235 69.263 39.9435 69.263C39.5135 69.263 39.1785 69.403 38.9385 69.683C38.7085 69.953 38.5935 70.343 38.5935 70.853V75.248H36.7035V70.493C36.7035 70.083 36.5985 69.778 36.3885 69.578C36.1785 69.368 35.8835 69.263 35.5035 69.263C35.0735 69.263 34.7385 69.403 34.4985 69.683C34.2685 69.953 34.1535 70.343 34.1535 70.853V75.248H32.2635ZM49.4778 75.458C48.7378 75.458 48.0828 75.303 47.5128 74.993C46.9528 74.673 46.5128 74.228 46.1928 73.658C45.8828 73.078 45.7278 72.398 45.7278 71.618V71.438C45.7278 70.658 45.8828 69.983 46.1928 69.413C46.5028 68.833 46.9378 68.388 47.4978 68.078C48.0578 67.758 48.7078 67.598 49.4478 67.598C50.1778 67.598 50.8128 67.763 51.3528 68.093C51.8928 68.413 52.3128 68.863 52.6128 69.443C52.9128 70.013 53.0628 70.678 53.0628 71.438V72.083H47.6478C47.6678 72.593 47.8578 73.008 48.2178 73.328C48.5778 73.648 49.0178 73.808 49.5378 73.808C50.0678 73.808 50.4578 73.693 50.7078 73.463C50.9578 73.233 51.1478 72.978 51.2778 72.698L52.8228 73.508C52.6828 73.768 52.4778 74.053 52.2078 74.363C51.9478 74.663 51.5978 74.923 51.1578 75.143C50.7178 75.353 50.1578 75.458 49.4778 75.458ZM47.6628 70.673H51.1428C51.1028 70.243 50.9278 69.898 50.6178 69.638C50.3178 69.378 49.9228 69.248 49.4328 69.248C48.9228 69.248 48.5178 69.378 48.2178 69.638C47.9178 69.898 47.7328 70.243 47.6628 70.673Z" fill="#767676"/>
<path fill-rule="evenodd" clip-rule="evenodd" d="M11.8419 31.2246C11.7558 31.1805 11.7558 31.0452 11.7558 30.7747V28.9875C11.7558 28.4591 11.7558 28.1948 11.8714 27.9689C11.9869 27.7429 12.2011 27.5882 12.6295 27.2788L31.421 13.7072C32.0165 13.2771 32.3143 13.062 32.6551 13.062C32.9958 13.062 33.2936 13.2771 33.8891 13.7072L41.944 19.5246V15.0311C41.944 14.449 42.4159 13.9772 42.9979 13.9772H45.5344C46.1165 13.9772 46.5883 14.449 46.5883 15.0311V22.8788L52.6806 27.2788C53.109 27.5882 53.3232 27.7429 53.4387 27.9689C53.5543 28.1948 53.5543 28.4591 53.5543 28.9875V30.7747C53.5543 31.0452 53.5543 31.1805 53.4682 31.2246C53.382 31.2686 53.2724 31.1894 53.053 31.031L33.8891 17.1904C33.2936 16.7603 32.9958 16.5452 32.6551 16.5452C32.3143 16.5452 32.0165 16.7603 31.421 17.1904L12.2571 31.031C12.0377 31.1894 11.9281 31.2686 11.8419 31.2246Z" fill="#767676"/>
<path d="M16.6337 30.3522L17.6249 30.8623L17.6249 30.8623L16.6337 30.3522ZM16.7088 50.8225L17.497 50.0344L17.497 50.0344L16.7088 50.8225ZM48.6014 50.8225L49.3896 51.6107L49.3896 51.6107L48.6014 50.8225ZM48.6764 30.3522L47.6853 30.8623L47.6853 30.8623L48.6764 30.3522ZM47.1448 28.9711L46.4969 29.8781L46.4969 29.8781L47.1448 28.9711ZM33.8802 19.4964L34.5281 18.5893L34.5281 18.5893L33.8802 19.4964ZM31.43 19.4964L32.0779 20.4034L32.0779 20.4034L31.43 19.4964ZM18.1654 28.9711L18.8133 29.8781L18.8133 29.8781L18.1654 28.9711ZM39.8945 50.4783L40.6827 49.6901L39.8945 50.4783ZM25.4157 50.4783L24.6276 49.6901L25.4157 50.4783ZM17.5148 32.4013C17.5148 31.8499 17.5159 31.5096 17.5395 31.2487C17.5611 31.01 17.5962 30.9179 17.6249 30.8623L15.6426 29.8422C15.4376 30.2405 15.356 30.6411 15.3192 31.0477C15.2844 31.432 15.2855 31.8893 15.2855 32.4013H17.5148ZM17.5148 49.0235V32.4013H15.2855V49.0235H17.5148ZM17.497 50.0344C17.5843 50.1217 17.5654 50.1947 17.5434 50.0313C17.5172 49.8359 17.5148 49.5518 17.5148 49.0235H15.2855C15.2855 49.4888 15.2831 49.9499 15.334 50.3284C15.3892 50.739 15.5247 51.2148 15.9206 51.6107L17.497 50.0344ZM18.5079 50.0166C17.9796 50.0166 17.6955 50.0142 17.5 49.9879C17.3366 49.966 17.4097 49.9471 17.497 50.0344L15.9206 51.6107C16.3166 52.0067 16.7924 52.1422 17.203 52.1974C17.5815 52.2482 18.0426 52.2459 18.5079 52.2459V50.0166ZM21.6101 50.0166H18.5079V52.2459H21.6101V50.0166ZM24.954 39.9396V46.6726H27.1833V39.9396H24.954ZM28.1764 36.7172C26.3967 36.7172 24.954 38.1599 24.954 39.9396H27.1833C27.1833 39.3911 27.628 38.9465 28.1764 38.9465V36.7172ZM37.1338 36.7172H28.1764V38.9465H37.1338V36.7172ZM40.3562 39.9396C40.3562 38.1599 38.9135 36.7172 37.1338 36.7172V38.9465C37.6823 38.9465 38.1269 39.3911 38.1269 39.9396H40.3562ZM40.3562 46.6726V39.9396H38.1269V46.6726H40.3562ZM46.8023 50.0166H43.7002V52.2459H46.8023V50.0166ZM47.8132 50.0344C47.9005 49.9471 47.9736 49.966 47.8102 49.9879C47.6147 50.0142 47.3306 50.0166 46.8023 50.0166V52.2459C47.2676 52.2459 47.7287 52.2482 48.1072 52.1974C48.5178 52.1422 48.9936 52.0067 49.3896 51.6107L47.8132 50.0344ZM47.7954 49.0235C47.7954 49.5518 47.793 49.8359 47.7667 50.0313C47.7448 50.1947 47.7259 50.1217 47.8132 50.0344L49.3896 51.6107C49.7855 51.2148 49.921 50.739 49.9762 50.3284C50.0271 49.9499 50.0247 49.4888 50.0247 49.0235H47.7954ZM47.7954 32.4013V49.0235H50.0247V32.4013H47.7954ZM47.6853 30.8623C47.7139 30.9179 47.7491 31.01 47.7707 31.2487C47.7943 31.5096 47.7954 31.8499 47.7954 32.4013H50.0247C50.0247 31.8893 50.0258 31.432 49.991 31.0477C49.9542 30.6411 49.8725 30.2405 49.6676 29.8422L47.6853 30.8623ZM46.4969 29.8781C46.9456 30.1987 47.222 30.3973 47.4205 30.5682C47.6022 30.7244 47.6567 30.8066 47.6853 30.8623L49.6676 29.8422C49.4626 29.4438 49.184 29.1445 48.8745 28.8783C48.582 28.6266 48.2093 28.3617 47.7927 28.0641L46.4969 29.8781ZM33.2323 20.4034L46.4969 29.8781L47.7927 28.0641L34.5281 18.5893L33.2323 20.4034ZM32.6551 19.9772C32.5659 19.9772 32.5339 19.9414 32.631 19.9953C32.7531 20.0632 32.9158 20.1773 33.2323 20.4034L34.5281 18.5893C34.253 18.3929 33.972 18.1901 33.7139 18.0467C33.4308 17.8894 33.0821 17.7479 32.6551 17.7479V19.9772ZM32.0779 20.4034C32.3944 20.1773 32.5571 20.0632 32.6792 19.9953C32.7763 19.9414 32.7443 19.9772 32.6551 19.9772V17.7479C32.2281 17.7479 31.8794 17.8894 31.5963 18.0467C31.3382 18.1901 31.0572 18.3929 30.7821 18.5893L32.0779 20.4034ZM18.8133 29.8781L32.0779 20.4034L30.7821 18.5893L17.5175 28.0641L18.8133 29.8781ZM17.6249 30.8623C17.6535 30.8066 17.708 30.7244 17.8897 30.5682C18.0882 30.3973 18.3646 30.1987 18.8133 29.8781L17.5175 28.0641C17.1009 28.3617 16.7282 28.6266 16.4357 28.8783C16.1262 29.1445 15.8476 29.4438 15.6426 29.8422L17.6249 30.8623ZM38.1269 46.6726C38.1269 47.692 38.1245 48.5687 38.2184 49.2673C38.3167 49.998 38.5382 50.6984 39.1063 51.2664L40.6827 49.6901C40.5978 49.6052 40.4929 49.4537 40.4279 48.9702C40.3586 48.4547 40.3562 47.755 40.3562 46.6726H38.1269ZM43.7002 50.0166C42.6177 50.0166 41.9181 50.0142 41.4025 49.9449C40.9191 49.8799 40.7675 49.7749 40.6827 49.6901L39.1063 51.2664C39.6744 51.8345 40.3748 52.0561 41.1055 52.1543C41.8041 52.2482 42.6808 52.2459 43.7002 52.2459V50.0166ZM21.6101 52.2459C22.6295 52.2459 23.5061 52.2482 24.2047 52.1543C24.9354 52.0561 25.6358 51.8345 26.2039 51.2664L24.6276 49.6901C24.5427 49.7749 24.3912 49.8799 23.9077 49.9449C23.3922 50.0142 22.6925 50.0166 21.6101 50.0166V52.2459ZM24.954 46.6726C24.954 47.755 24.9517 48.4547 24.8823 48.9702C24.8173 49.4537 24.7124 49.6052 24.6276 49.6901L26.2039 51.2664C26.772 50.6983 26.9935 49.998 27.0918 49.2673C27.1857 48.5687 27.1833 47.692 27.1833 46.6726H24.954Z" fill="#767676"/>
</svg>
