<svg width="116" height="117" viewBox="0 0 116 117" fill="none" xmlns="http://www.w3.org/2000/svg">
<path d="M16.9122 93.4003C19.1221 91.2891 20.6183 88.6746 21.7568 85.3859C21.7683 85.3845 21.7805 85.3837 21.7932 85.3837C21.8058 85.3837 21.8181 85.3846 21.8296 85.386C21.8301 85.3861 21.8306 85.3862 21.8311 85.3862C22.8871 88.465 24.274 90.9709 26.3266 93.0354C28.3751 95.0957 31.0067 96.636 34.4298 97.9094C34.4304 97.919 34.4305 97.929 34.4301 97.9393C34.4296 97.9521 34.4283 97.9645 34.4263 97.9761C34.4263 97.9763 34.4263 97.9765 34.4262 97.9768C31.1467 98.9294 28.5662 100.21 26.5441 102.032C24.5154 103.859 23.1369 106.15 22.1362 108.981C22.0629 109.015 21.931 109.05 21.7595 109.051C21.5761 109.053 21.4294 109.015 21.3482 108.976C21.3458 108.974 21.3435 108.973 21.3414 108.972C20.2548 106.316 18.7278 104.183 16.5516 102.411C14.4456 100.697 11.7837 99.3637 8.44937 98.1922C11.9999 96.9626 14.754 95.4621 16.9122 93.4003ZM21.3095 108.954C21.3096 108.954 21.3104 108.954 21.3117 108.955L21.3095 108.954Z" stroke="#767676" stroke-width="2.75991"/>
<path d="M55.9584 16.1113C56.1565 15.5331 56.8376 14.9908 57.9713 14.9933C59.1051 14.9958 59.7872 15.5415 59.9844 16.1224C63.3058 25.9088 67.6256 33.718 73.9754 40.1045C80.3177 46.4835 88.5494 51.3065 99.4841 55.3369C100.046 55.5441 100.569 56.231 100.522 57.3757C100.476 58.5209 99.8965 59.1803 99.3099 59.3487C88.8546 62.3506 80.8137 66.3511 74.587 71.9591C68.3455 77.5804 64.0768 84.6817 60.9524 93.6375C60.7752 94.1453 59.8178 94.9524 57.8759 94.9679C55.9445 94.9834 54.883 94.1918 54.6604 93.641C51.2995 85.3261 46.5898 78.7233 39.8566 73.2425C33.1593 67.7909 24.5528 63.5251 13.5066 59.7293C12.9289 59.5308 12.5039 58.955 12.5092 58.0955C12.5144 57.2347 12.9494 56.651 13.5367 56.4531C25.2319 52.5112 34.0651 47.7489 40.8845 41.2341C47.7171 34.7067 52.3771 26.5645 55.9584 16.1113Z" stroke="#767676" stroke-width="4.59984"/>
</svg>
