<svg width="66" height="90" viewBox="0 0 66 90" fill="none" xmlns="http://www.w3.org/2000/svg">
<path d="M4.62443 75.2479V64.7479H11.2244V66.5479H6.60443V69.0829H10.8644V70.8829H6.60443V75.2479H4.62443ZM13.7186 75.2479V67.8079H15.5786V68.6479H15.8486C15.9586 68.3479 16.1386 68.1279 16.3886 67.9879C16.6486 67.8479 16.9486 67.7779 17.2886 67.7779H18.1886V69.4579H17.2586C16.7786 69.4579 16.3836 69.5879 16.0736 69.8479C15.7636 70.0979 15.6086 70.4879 15.6086 71.0179V75.2479H13.7186ZM20.6874 75.2479V67.8079H22.5774V75.2479H20.6874ZM21.6324 66.9379C21.2924 66.9379 21.0024 66.8279 20.7624 66.6079C20.5324 66.3879 20.4174 66.0979 20.4174 65.7379C20.4174 65.3779 20.5324 65.0879 20.7624 64.8679C21.0024 64.6479 21.2924 64.5379 21.6324 64.5379C21.9824 64.5379 22.2724 64.6479 22.5024 64.8679C22.7324 65.0879 22.8474 65.3779 22.8474 65.7379C22.8474 66.0979 22.7324 66.3879 22.5024 66.6079C22.2724 66.8279 21.9824 66.9379 21.6324 66.9379ZM29.0833 75.4579C28.3433 75.4579 27.6883 75.3029 27.1183 74.9929C26.5583 74.6729 26.1183 74.2279 25.7983 73.6579C25.4883 73.0779 25.3333 72.3979 25.3333 71.6179V71.4379C25.3333 70.6579 25.4883 69.9829 25.7983 69.4129C26.1083 68.8329 26.5433 68.3879 27.1033 68.0779C27.6633 67.7579 28.3133 67.5979 29.0533 67.5979C29.7833 67.5979 30.4183 67.7629 30.9583 68.0929C31.4983 68.4129 31.9183 68.8629 32.2183 69.4429C32.5183 70.0129 32.6683 70.6779 32.6683 71.4379V72.0829H27.2533C27.2733 72.5929 27.4633 73.0079 27.8233 73.3279C28.1833 73.6479 28.6233 73.8079 29.1433 73.8079C29.6733 73.8079 30.0633 73.6929 30.3133 73.4629C30.5633 73.2329 30.7533 72.9779 30.8833 72.6979L32.4283 73.5079C32.2883 73.7679 32.0833 74.0529 31.8133 74.3629C31.5533 74.6629 31.2033 74.9229 30.7633 75.1429C30.3233 75.3529 29.7633 75.4579 29.0833 75.4579ZM27.2683 70.6729H30.7483C30.7083 70.2429 30.5333 69.8979 30.2233 69.6379C29.9233 69.3779 29.5283 69.2479 29.0383 69.2479C28.5283 69.2479 28.1233 69.3779 27.8233 69.6379C27.5233 69.8979 27.3383 70.2429 27.2683 70.6729ZM35.3721 75.2479V67.8079H37.2321V68.7829H37.5021C37.6221 68.5229 37.8471 68.2779 38.1771 68.0479C38.5071 67.8079 39.0071 67.6879 39.6771 67.6879C40.2571 67.6879 40.7621 67.8229 41.1921 68.0929C41.6321 68.3529 41.9721 68.7179 42.2121 69.1879C42.4521 69.6479 42.5721 70.1879 42.5721 70.8079V75.2479H40.6821V70.9579C40.6821 70.3979 40.5421 69.9779 40.2621 69.6979C39.9921 69.4179 39.6021 69.2779 39.0921 69.2779C38.5121 69.2779 38.0621 69.4729 37.7421 69.8629C37.4221 70.2429 37.2621 70.7779 37.2621 71.4679V75.2479H35.3721ZM48.6367 75.4579C48.0467 75.4579 47.4917 75.3129 46.9717 75.0229C46.4617 74.7229 46.0517 74.2879 45.7417 73.7179C45.4317 73.1479 45.2767 72.4579 45.2767 71.6479V71.4079C45.2767 70.5979 45.4317 69.9079 45.7417 69.3379C46.0517 68.7679 46.4617 68.3379 46.9717 68.0479C47.4817 67.7479 48.0367 67.5979 48.6367 67.5979C49.0867 67.5979 49.4617 67.6529 49.7617 67.7629C50.0717 67.8629 50.3217 67.9929 50.5117 68.1529C50.7017 68.3129 50.8467 68.4829 50.9467 68.6629H51.2167V64.7479H53.1067V75.2479H51.2467V74.3479H50.9767C50.8067 74.6279 50.5417 74.8829 50.1817 75.1129C49.8317 75.3429 49.3167 75.4579 48.6367 75.4579ZM49.2067 73.8079C49.7867 73.8079 50.2717 73.6229 50.6617 73.2529C51.0517 72.8729 51.2467 72.3229 51.2467 71.6029V71.4529C51.2467 70.7329 51.0517 70.1879 50.6617 69.8179C50.2817 69.4379 49.7967 69.2479 49.2067 69.2479C48.6267 69.2479 48.1417 69.4379 47.7517 69.8179C47.3617 70.1879 47.1667 70.7329 47.1667 71.4529V71.6029C47.1667 72.3229 47.3617 72.8729 47.7517 73.2529C48.1417 73.6229 48.6267 73.8079 49.2067 73.8079ZM59.3137 75.4579C58.3437 75.4579 57.5487 75.2479 56.9287 74.8279C56.3087 74.4079 55.9337 73.8079 55.8037 73.0279L57.5437 72.5779C57.6137 72.9279 57.7287 73.2029 57.8887 73.4029C58.0587 73.6029 58.2637 73.7479 58.5037 73.8379C58.7537 73.9179 59.0237 73.9579 59.3137 73.9579C59.7537 73.9579 60.0787 73.8829 60.2887 73.7329C60.4987 73.5729 60.6037 73.3779 60.6037 73.1479C60.6037 72.9179 60.5037 72.7429 60.3037 72.6229C60.1037 72.4929 59.7837 72.3879 59.3437 72.3079L58.9237 72.2329C58.4037 72.1329 57.9287 71.9979 57.4987 71.8279C57.0687 71.6479 56.7237 71.4029 56.4637 71.0929C56.2037 70.7829 56.0737 70.3829 56.0737 69.8929C56.0737 69.1529 56.3437 68.5879 56.8837 68.1979C57.4237 67.7979 58.1337 67.5979 59.0137 67.5979C59.8437 67.5979 60.5337 67.7829 61.0837 68.1529C61.6337 68.5229 61.9937 69.0079 62.1637 69.6079L60.4087 70.1479C60.3287 69.7679 60.1637 69.4979 59.9137 69.3379C59.6737 69.1779 59.3737 69.0979 59.0137 69.0979C58.6537 69.0979 58.3787 69.1629 58.1887 69.2929C57.9987 69.4129 57.9037 69.5829 57.9037 69.8029C57.9037 70.0429 58.0037 70.2229 58.2037 70.3429C58.4037 70.4529 58.6737 70.5379 59.0137 70.5979L59.4337 70.6729C59.9937 70.7729 60.4987 70.9079 60.9487 71.0779C61.4087 71.2379 61.7687 71.4729 62.0287 71.7829C62.2987 72.0829 62.4337 72.4929 62.4337 73.0129C62.4337 73.7929 62.1487 74.3979 61.5787 74.8279C61.0187 75.2479 60.2637 75.4579 59.3137 75.4579Z" fill="white"/>
<path fill-rule="evenodd" clip-rule="evenodd" d="M31.1886 34.8229C29.8291 33.3338 27.9907 32.2687 25.5133 32.2687C18.7441 32.2687 16.7459 40.2203 16.2495 43.0467C16.157 43.573 16.5687 44.029 17.1031 44.029H21.5587C22.6091 40.3982 25.1315 35.8294 31.1886 34.8229Z" fill="white" fill-opacity="0.4"/>
<path d="M31.1886 34.8229L31.4027 36.1114L33.774 35.7174L32.1533 33.9422L31.1886 34.8229ZM16.2495 43.0467L17.536 43.2727L16.2495 43.0467ZM21.5587 44.029V45.3352H22.5405L22.8134 44.392L21.5587 44.029ZM25.5133 33.5749C27.5624 33.5749 29.0673 34.4367 30.224 35.7036L32.1533 33.9422C30.5908 32.2308 28.419 30.9625 25.5133 30.9625V33.5749ZM17.536 43.2727C17.7739 41.9182 18.363 39.4088 19.6485 37.2709C20.918 35.1597 22.7496 33.5749 25.5133 33.5749V30.9625C21.5078 30.9625 18.9557 33.3535 17.4097 35.9247C15.8796 38.4693 15.2215 41.3488 14.963 42.8207L17.536 43.2727ZM17.1031 42.7228C17.2141 42.7228 17.334 42.7724 17.422 42.8725C17.5139 42.977 17.5614 43.1281 17.536 43.2727L14.963 42.8207C14.7194 44.2073 15.8199 45.3352 17.1031 45.3352V42.7228ZM21.5587 42.7228H17.1031V45.3352H21.5587V42.7228ZM22.8134 44.392C23.7998 40.9828 26.0633 36.9987 31.4027 36.1114L30.9745 33.5343C24.1998 34.6601 21.4185 39.8137 20.3039 43.666L22.8134 44.392Z" fill="white"/>
<path fill-rule="evenodd" clip-rule="evenodd" d="M51.2413 43.0467C50.7449 40.2204 48.7468 32.2687 41.9776 32.2687C39.5002 32.2687 37.6618 33.3338 36.3022 34.8229C42.3594 35.8293 44.8818 40.3982 45.9323 44.029H50.3878C50.9221 44.029 51.3338 43.573 51.2413 43.0467Z" fill="white" fill-opacity="0.4"/>
<path d="M51.2413 43.0467L49.9548 43.2726L49.9548 43.2727L51.2413 43.0467ZM36.3022 34.8229L35.3376 33.9421L33.7168 35.7174L36.0881 36.1114L36.3022 34.8229ZM45.9323 44.029L44.6775 44.392L44.9504 45.3352H45.9323V44.029ZM41.9776 33.5749C44.7413 33.5749 46.5729 35.1597 47.8423 37.2709C49.1278 39.4088 49.7169 41.9182 49.9548 43.2726L52.5278 42.8207C52.2693 41.3488 51.6112 38.4693 50.0812 35.9247C48.5352 33.3535 45.9831 30.9625 41.9776 30.9625V33.5749ZM37.2669 35.7036C38.4236 34.4367 39.9285 33.5749 41.9776 33.5749V30.9625C39.0719 30.9625 36.9001 32.2308 35.3376 33.9421L37.2669 35.7036ZM36.0881 36.1114C41.4277 36.9986 43.6912 40.9828 44.6775 44.392L47.187 43.666C46.0725 39.8137 43.2912 34.66 36.5164 33.5343L36.0881 36.1114ZM50.3878 42.7228H45.9323V45.3352H50.3878V42.7228ZM49.9548 43.2727C49.9294 43.1281 49.9769 42.977 50.0689 42.8725C50.1568 42.7724 50.2767 42.7228 50.3878 42.7228V45.3352C51.6709 45.3352 52.7714 44.2073 52.5278 42.8207L49.9548 43.2727Z" fill="white"/>
<path d="M33.7455 34.621C44.6912 34.621 46.3755 44.7242 46.6347 47.8336C46.6762 48.3307 46.2775 48.7333 45.7787 48.7333H21.7124C21.2136 48.7333 20.8149 48.3307 20.8563 47.8336C21.1155 44.7242 22.7999 34.621 33.7455 34.621Z" fill="white" fill-opacity="0.4" stroke="white" stroke-width="2.6124" stroke-linecap="round"/>
<path d="M28.8992 19.7854C28.3204 19.1482 27.5736 18.6873 26.7446 18.4556C25.9155 18.2239 25.0379 18.2308 24.2127 18.4756C23.3874 18.7204 22.648 19.1931 22.0794 19.8394C21.5108 20.4857 21.1361 21.2793 20.9984 22.1291C20.8607 22.9788 20.9655 23.8501 21.3009 24.6429C21.6363 25.4357 22.1886 26.1177 22.8943 26.6106C23.6001 27.1035 24.4306 27.3873 25.2903 27.4292C26.1501 27.4712 27.0043 27.2697 27.7547 26.8479" stroke="white" stroke-width="2.6124"/>
<path d="M38.7434 19.6265C39.3522 19.0177 40.1204 18.5931 40.9597 18.4015C41.7991 18.2099 42.6754 18.2591 43.4881 18.5434C44.3007 18.8276 45.0166 19.3355 45.5534 20.0085C46.0903 20.6816 46.4263 21.4925 46.5228 22.348C46.6193 23.2035 46.4724 24.0688 46.099 24.8446C45.7256 25.6203 45.1409 26.2749 44.412 26.7331C43.6831 27.1913 42.8398 27.4345 41.9788 27.4347C41.1179 27.4349 40.2744 27.1921 39.5453 26.7343" stroke="white" stroke-width="2.6124"/>
<circle cx="33.7458" cy="24.0368" r="5.74998" fill="white" fill-opacity="0.4" stroke="white" stroke-width="2.6124" stroke-linecap="round"/>
</svg>
