<svg width="66" height="90" viewBox="0 0 66 90" fill="none" xmlns="http://www.w3.org/2000/svg">
<path d="M3.6031 75.248L6.3631 64.748H9.8131L12.5731 75.248H10.5331L9.9631 72.938H6.2131L5.6431 75.248H3.6031ZM6.6781 71.108H9.4981L8.2231 65.993H7.9531L6.6781 71.108ZM14.9114 75.248V67.808H16.8014V75.248H14.9114ZM15.8564 66.938C15.5164 66.938 15.2264 66.828 14.9864 66.608C14.7564 66.388 14.6414 66.098 14.6414 65.738C14.6414 65.378 14.7564 65.088 14.9864 64.868C15.2264 64.648 15.5164 64.538 15.8564 64.538C16.2064 64.538 16.4964 64.648 16.7264 64.868C16.9564 65.088 17.0714 65.378 17.0714 65.738C17.0714 66.098 16.9564 66.388 16.7264 66.608C16.4964 66.828 16.2064 66.938 15.8564 66.938ZM19.9173 75.248V67.808H21.7773V68.648H22.0473C22.1573 68.348 22.3373 68.128 22.5873 67.988C22.8473 67.848 23.1473 67.778 23.4873 67.778H24.3873V69.458H23.4573C22.9773 69.458 22.5823 69.588 22.2723 69.848C21.9623 70.098 21.8073 70.488 21.8073 71.018V75.248H19.9173ZM29.6224 75.458C29.0324 75.458 28.4774 75.313 27.9574 75.023C27.4474 74.723 27.0374 74.288 26.7274 73.718C26.4174 73.148 26.2624 72.458 26.2624 71.648V71.408C26.2624 70.598 26.4174 69.908 26.7274 69.338C27.0374 68.768 27.4474 68.338 27.9574 68.048C28.4674 67.748 29.0224 67.598 29.6224 67.598C30.0724 67.598 30.4474 67.653 30.7474 67.763C31.0574 67.863 31.3074 67.993 31.4974 68.153C31.6874 68.313 31.8324 68.483 31.9324 68.663H32.2024V64.748H34.0924V75.248H32.2324V74.348H31.9624C31.7924 74.628 31.5274 74.883 31.1674 75.113C30.8174 75.343 30.3024 75.458 29.6224 75.458ZM30.1924 73.808C30.7724 73.808 31.2574 73.623 31.6474 73.253C32.0374 72.873 32.2324 72.323 32.2324 71.603V71.453C32.2324 70.733 32.0374 70.188 31.6474 69.818C31.2674 69.438 30.7824 69.248 30.1924 69.248C29.6124 69.248 29.1274 69.438 28.7374 69.818C28.3474 70.188 28.1524 70.733 28.1524 71.453V71.603C28.1524 72.323 28.3474 72.873 28.7374 73.253C29.1274 73.623 29.6124 73.808 30.1924 73.808ZM37.2094 75.248V67.808H39.0694V68.648H39.3394C39.4494 68.348 39.6294 68.128 39.8794 67.988C40.1394 67.848 40.4394 67.778 40.7794 67.778H41.6794V69.458H40.7494C40.2694 69.458 39.8744 69.588 39.5644 69.848C39.2544 70.098 39.0994 70.488 39.0994 71.018V75.248H37.2094ZM47.4545 75.458C46.7145 75.458 46.0495 75.308 45.4595 75.008C44.8695 74.708 44.4045 74.273 44.0645 73.703C43.7245 73.133 43.5545 72.448 43.5545 71.648V71.408C43.5545 70.608 43.7245 69.923 44.0645 69.353C44.4045 68.783 44.8695 68.348 45.4595 68.048C46.0495 67.748 46.7145 67.598 47.4545 67.598C48.1945 67.598 48.8595 67.748 49.4495 68.048C50.0395 68.348 50.5045 68.783 50.8445 69.353C51.1845 69.923 51.3545 70.608 51.3545 71.408V71.648C51.3545 72.448 51.1845 73.133 50.8445 73.703C50.5045 74.273 50.0395 74.708 49.4495 75.008C48.8595 75.308 48.1945 75.458 47.4545 75.458ZM47.4545 73.778C48.0345 73.778 48.5145 73.593 48.8945 73.223C49.2745 72.843 49.4645 72.303 49.4645 71.603V71.453C49.4645 70.753 49.2745 70.218 48.8945 69.848C48.5245 69.468 48.0445 69.278 47.4545 69.278C46.8745 69.278 46.3945 69.468 46.0145 69.848C45.6345 70.218 45.4445 70.753 45.4445 71.453V71.603C45.4445 72.303 45.6345 72.843 46.0145 73.223C46.3945 73.593 46.8745 73.778 47.4545 73.778ZM54.1206 78.248V67.808H55.9806V68.708H56.2506C56.4206 68.418 56.6856 68.163 57.0456 67.943C57.4056 67.713 57.9206 67.598 58.5906 67.598C59.1906 67.598 59.7456 67.748 60.2556 68.048C60.7656 68.338 61.1756 68.768 61.4856 69.338C61.7956 69.908 61.9506 70.598 61.9506 71.408V71.648C61.9506 72.458 61.7956 73.148 61.4856 73.718C61.1756 74.288 60.7656 74.723 60.2556 75.023C59.7456 75.313 59.1906 75.458 58.5906 75.458C58.1406 75.458 57.7606 75.403 57.4506 75.293C57.1506 75.193 56.9056 75.063 56.7156 74.903C56.5356 74.733 56.3906 74.563 56.2806 74.393H56.0106V78.248H54.1206ZM58.0206 73.808C58.6106 73.808 59.0956 73.623 59.4756 73.253C59.8656 72.873 60.0606 72.323 60.0606 71.603V71.453C60.0606 70.733 59.8656 70.188 59.4756 69.818C59.0856 69.438 58.6006 69.248 58.0206 69.248C57.4406 69.248 56.9556 69.438 56.5656 69.818C56.1756 70.188 55.9806 70.733 55.9806 71.453V71.603C55.9806 72.323 56.1756 72.873 56.5656 73.253C56.9556 73.623 57.4406 73.808 58.0206 73.808Z" fill="white"/>
<path d="M32.4215 11.7559C43.6791 11.7559 47.4773 21.4534 47.9692 26.3022L32.4215 36.9484L17.19 27.3563C17.5765 22.1561 21.1639 11.7559 32.4215 11.7559Z" fill="#787878"/>
<path d="M17.19 27.3563C18.49 26.2319 22.2074 24.447 26.6767 26.3022M17.19 27.3563C17.5765 22.1561 21.1639 11.7559 32.4215 11.7559M17.19 27.3563L32.4215 36.9484M26.6767 26.3022C26.6767 26.3022 28.1525 24.5103 32.4215 24.5103C36.6905 24.5103 38.1662 26.3022 38.1662 26.3022M26.6767 26.3022C26.9051 23.14 28.3738 15.8035 32.4215 11.7559M26.6767 26.3022L32.4215 36.9484M38.1662 26.3022C38.1662 26.3022 40.2744 25.1427 43.0677 25.1427C45.8611 25.1427 47.9692 26.3022 47.9692 26.3022M38.1662 26.3022C38.1662 18.5442 34.3364 13.3721 32.4215 11.7559M38.1662 26.3022L32.4215 36.9484M47.9692 26.3022C47.4773 21.4534 43.6791 11.7559 32.4215 11.7559M47.9692 26.3022L32.4215 36.9484" stroke="white" stroke-width="1.84772"/>
<mask id="path-4-inside-1_2013_1807" fill="white">
<path fill-rule="evenodd" clip-rule="evenodd" d="M32.3397 54.0657C37.6453 54.0657 41.9463 49.7647 41.9463 44.4591C41.9463 39.1536 37.6453 34.8525 32.3397 34.8525C27.0341 34.8525 22.7331 39.1536 22.7331 44.4591C22.7331 49.7647 27.0341 54.0657 32.3397 54.0657ZM38.4582 44.5625L32.4435 38.5478L26.4288 44.5625L32.4435 50.5772L38.4582 44.5625Z"/>
</mask>
<path fill-rule="evenodd" clip-rule="evenodd" d="M32.3397 54.0657C37.6453 54.0657 41.9463 49.7647 41.9463 44.4591C41.9463 39.1536 37.6453 34.8525 32.3397 34.8525C27.0341 34.8525 22.7331 39.1536 22.7331 44.4591C22.7331 49.7647 27.0341 54.0657 32.3397 54.0657ZM38.4582 44.5625L32.4435 38.5478L26.4288 44.5625L32.4435 50.5772L38.4582 44.5625Z" fill="#767676"/>
<path d="M32.4435 38.5478L33.75 37.2413L32.4435 35.9348L31.1369 37.2413L32.4435 38.5478ZM38.4582 44.5625L39.7647 45.8691L41.0712 44.5625L39.7647 43.256L38.4582 44.5625ZM26.4288 44.5625L25.1222 43.256L23.8157 44.5625L25.1222 45.8691L26.4288 44.5625ZM32.4435 50.5772L31.1369 51.8838L32.4435 53.1903L33.75 51.8838L32.4435 50.5772ZM40.0986 44.4591C40.0986 48.7442 36.6248 52.218 32.3397 52.218V55.9134C38.6658 55.9134 43.794 50.7852 43.794 44.4591H40.0986ZM32.3397 36.7003C36.6248 36.7003 40.0986 40.174 40.0986 44.4591H43.794C43.794 38.1331 38.6658 33.0048 32.3397 33.0048V36.7003ZM24.5808 44.4591C24.5808 40.174 28.0546 36.7003 32.3397 36.7003V33.0048C26.0137 33.0048 20.8854 38.1331 20.8854 44.4591H24.5808ZM32.3397 52.218C28.0546 52.218 24.5808 48.7442 24.5808 44.4591H20.8854C20.8854 50.7852 26.0137 55.9134 32.3397 55.9134V52.218ZM31.1369 39.8544L37.1516 45.8691L39.7647 43.256L33.75 37.2413L31.1369 39.8544ZM27.7353 45.8691L33.75 39.8544L31.1369 37.2413L25.1222 43.256L27.7353 45.8691ZM33.75 49.2707L27.7353 43.256L25.1222 45.8691L31.1369 51.8838L33.75 49.2707ZM37.1516 43.256L31.1369 49.2707L33.75 51.8838L39.7647 45.8691L37.1516 43.256Z" fill="white" mask="url(#path-4-inside-1_2013_1807)"/>
</svg>
