<svg width="66" height="90" viewBox="0 0 66 90" fill="none" xmlns="http://www.w3.org/2000/svg">
<path d="M9.82699 75.2479L8.44699 64.7479H10.412L11.432 73.8679H11.702L13.022 64.7479H16.442L17.762 73.8679H18.032L19.052 64.7479H21.017L19.637 75.2479H16.217L14.867 65.9179H14.597L13.247 75.2479H9.82699ZM25.7672 75.4579C25.2372 75.4579 24.7622 75.3679 24.3422 75.1879C23.9222 74.9979 23.5872 74.7279 23.3372 74.3779C23.0972 74.0179 22.9772 73.5829 22.9772 73.0729C22.9772 72.5629 23.0972 72.1379 23.3372 71.7979C23.5872 71.4479 23.9272 71.1879 24.3572 71.0179C24.7972 70.8379 25.2972 70.7479 25.8572 70.7479H27.8972V70.3279C27.8972 69.9779 27.7872 69.6929 27.5672 69.4729C27.3472 69.2429 26.9972 69.1279 26.5172 69.1279C26.0472 69.1279 25.6972 69.2379 25.4672 69.4579C25.2372 69.6679 25.0872 69.9429 25.0172 70.2829L23.2772 69.6979C23.3972 69.3179 23.5872 68.9729 23.8472 68.6629C24.1172 68.3429 24.4722 68.0879 24.9122 67.8979C25.3622 67.6979 25.9072 67.5979 26.5472 67.5979C27.5272 67.5979 28.3022 67.8429 28.8722 68.3329C29.4422 68.8229 29.7272 69.5329 29.7272 70.4629V73.2379C29.7272 73.5379 29.8672 73.6879 30.1472 73.6879H30.7472V75.2479H29.4872C29.1172 75.2479 28.8122 75.1579 28.5722 74.9779C28.3322 74.7979 28.2122 74.5579 28.2122 74.2579V74.2429H27.9272C27.8872 74.3629 27.7972 74.5229 27.6572 74.7229C27.5172 74.9129 27.2972 75.0829 26.9972 75.2329C26.6972 75.3829 26.2872 75.4579 25.7672 75.4579ZM26.0972 73.9279C26.6272 73.9279 27.0572 73.7829 27.3872 73.4929C27.7272 73.1929 27.8972 72.7979 27.8972 72.3079V72.1579H25.9922C25.6422 72.1579 25.3672 72.2329 25.1672 72.3829C24.9672 72.5329 24.8672 72.7429 24.8672 73.0129C24.8672 73.2829 24.9722 73.5029 25.1822 73.6729C25.3922 73.8429 25.6972 73.9279 26.0972 73.9279ZM33.1506 75.2479V64.7479H35.0406V75.2479H33.1506ZM38.1565 75.2479V64.7479H40.0465V75.2479H38.1565ZM46.5524 75.4579C45.8124 75.4579 45.1574 75.3029 44.5874 74.9929C44.0274 74.6729 43.5874 74.2279 43.2674 73.6579C42.9574 73.0779 42.8024 72.3979 42.8024 71.6179V71.4379C42.8024 70.6579 42.9574 69.9829 43.2674 69.4129C43.5774 68.8329 44.0124 68.3879 44.5724 68.0779C45.1324 67.7579 45.7824 67.5979 46.5224 67.5979C47.2524 67.5979 47.8874 67.7629 48.4274 68.0929C48.9674 68.4129 49.3874 68.8629 49.6874 69.4429C49.9874 70.0129 50.1374 70.6779 50.1374 71.4379V72.0829H44.7224C44.7424 72.5929 44.9324 73.0079 45.2924 73.3279C45.6524 73.6479 46.0924 73.8079 46.6124 73.8079C47.1424 73.8079 47.5324 73.6929 47.7824 73.4629C48.0324 73.2329 48.2224 72.9779 48.3524 72.6979L49.8974 73.5079C49.7574 73.7679 49.5524 74.0529 49.2824 74.3629C49.0224 74.6629 48.6724 74.9229 48.2324 75.1429C47.7924 75.3529 47.2324 75.4579 46.5524 75.4579ZM44.7374 70.6729H48.2174C48.1774 70.2429 48.0024 69.8979 47.6924 69.6379C47.3924 69.3779 46.9974 69.2479 46.5074 69.2479C45.9974 69.2479 45.5924 69.3779 45.2924 69.6379C44.9924 69.8979 44.8074 70.2429 44.7374 70.6729ZM55.4421 75.2479C54.9521 75.2479 54.5521 75.0979 54.2421 74.7979C53.9421 74.4879 53.7921 74.0779 53.7921 73.5679V69.3679H51.9321V67.8079H53.7921V65.4979H55.6821V67.8079H57.7221V69.3679H55.6821V73.2379C55.6821 73.5379 55.8221 73.6879 56.1021 73.6879H57.5421V75.2479H55.4421Z" fill="white"/>
<circle cx="43.9849" cy="35.2516" r="1.70533" fill="white" stroke="white" stroke-width="1.90913"/>
<path d="M48.9246 31.0715H41.3704C40.0861 31.0715 39.0449 32.1127 39.0449 33.397V37.1057C39.0449 38.3901 40.0861 39.4312 41.3704 39.4312H48.9246" stroke="white" stroke-width="2.32214"/>
<path d="M19.8614 19.593L44.3388 19.593C45.8377 19.593 46.8882 21.0723 46.3941 22.4875C46.089 23.3615 45.2645 23.947 44.3388 23.947H42.0531C44.9501 23.947 46.3986 23.947 47.4154 24.6825C47.7493 24.924 48.0425 25.2172 48.284 25.5511C49.0195 26.5679 49.0195 28.0164 49.0195 30.9134V37.8798C49.0195 40.7768 49.0195 42.2253 48.284 43.2421C48.0425 43.5759 47.7493 43.8691 47.4154 44.1106C46.3986 44.8462 44.9501 44.8462 42.0531 44.8462L25.4224 44.8462C21.7682 44.8462 19.9411 44.8462 18.8059 43.711C17.6707 42.5758 17.6707 40.7487 17.6707 37.0945L17.6707 21.7836C17.6707 20.5737 18.6515 19.593 19.8614 19.593Z" fill="white" fill-opacity="0.4"/>
<path d="M17.6707 21.7836V21.7836C17.6707 20.5737 18.6515 19.593 19.8614 19.593L44.3388 19.593C45.8377 19.593 46.8882 21.0723 46.3941 22.4875V22.4875C46.089 23.3615 45.2645 23.947 44.3388 23.947H38.5699M17.6707 21.7836V21.7836C17.6707 22.9784 18.6393 23.947 19.834 23.947L42.0531 23.947C44.9501 23.947 46.3986 23.947 47.4154 24.6825C47.7493 24.924 48.0425 25.2172 48.284 25.5511C49.0195 26.5679 49.0195 28.0164 49.0195 30.9134V30.9134L49.0195 37.8798V37.8798C49.0195 40.7768 49.0195 42.2253 48.284 43.2421C48.0425 43.5759 47.7493 43.8691 47.4154 44.1106C46.3986 44.8462 44.9501 44.8462 42.0531 44.8462L25.4224 44.8462C21.7682 44.8462 19.9411 44.8462 18.8059 43.711C17.6707 42.5758 17.6707 40.7487 17.6707 37.0945L17.6707 21.7836Z" stroke="white" stroke-width="2.32214"/>
</svg>
