<svg width="66" height="90" viewBox="0 0 66 90" fill="none" xmlns="http://www.w3.org/2000/svg">
<path d="M11.1322 75.2479V64.7479H13.1122V69.0829H17.0122V64.7479H18.9922V75.2479H17.0122V70.8829H13.1122V75.2479H11.1322ZM25.5975 75.4579C24.8575 75.4579 24.1925 75.3079 23.6025 75.0079C23.0125 74.7079 22.5475 74.2729 22.2075 73.7029C21.8675 73.1329 21.6975 72.4479 21.6975 71.6479V71.4079C21.6975 70.6079 21.8675 69.9229 22.2075 69.3529C22.5475 68.7829 23.0125 68.3479 23.6025 68.0479C24.1925 67.7479 24.8575 67.5979 25.5975 67.5979C26.3375 67.5979 27.0025 67.7479 27.5925 68.0479C28.1825 68.3479 28.6475 68.7829 28.9875 69.3529C29.3275 69.9229 29.4975 70.6079 29.4975 71.4079V71.6479C29.4975 72.4479 29.3275 73.1329 28.9875 73.7029C28.6475 74.2729 28.1825 74.7079 27.5925 75.0079C27.0025 75.3079 26.3375 75.4579 25.5975 75.4579ZM25.5975 73.7779C26.1775 73.7779 26.6575 73.5929 27.0375 73.2229C27.4175 72.8429 27.6075 72.3029 27.6075 71.6029V71.4529C27.6075 70.7529 27.4175 70.2179 27.0375 69.8479C26.6675 69.4679 26.1875 69.2779 25.5975 69.2779C25.0175 69.2779 24.5375 69.4679 24.1575 69.8479C23.7775 70.2179 23.5875 70.7529 23.5875 71.4529V71.6029C23.5875 72.3029 23.7775 72.8429 24.1575 73.2229C24.5375 73.5929 25.0175 73.7779 25.5975 73.7779ZM32.2635 75.2479V67.8079H34.1235V68.6179H34.3935C34.5235 68.3679 34.7385 68.1529 35.0385 67.9729C35.3385 67.7829 35.7335 67.6879 36.2235 67.6879C36.7535 67.6879 37.1785 67.7929 37.4985 68.0029C37.8185 68.2029 38.0635 68.4679 38.2335 68.7979H38.5035C38.6735 68.4779 38.9135 68.2129 39.2235 68.0029C39.5335 67.7929 39.9735 67.6879 40.5435 67.6879C41.0035 67.6879 41.4185 67.7879 41.7885 67.9879C42.1685 68.1779 42.4685 68.4729 42.6885 68.8729C42.9185 69.2629 43.0335 69.7579 43.0335 70.3579V75.2479H41.1435V70.4929C41.1435 70.0829 41.0385 69.7779 40.8285 69.5779C40.6185 69.3679 40.3235 69.2629 39.9435 69.2629C39.5135 69.2629 39.1785 69.4029 38.9385 69.6829C38.7085 69.9529 38.5935 70.3429 38.5935 70.8529V75.2479H36.7035V70.4929C36.7035 70.0829 36.5985 69.7779 36.3885 69.5779C36.1785 69.3679 35.8835 69.2629 35.5035 69.2629C35.0735 69.2629 34.7385 69.4029 34.4985 69.6829C34.2685 69.9529 34.1535 70.3429 34.1535 70.8529V75.2479H32.2635ZM49.4778 75.4579C48.7378 75.4579 48.0828 75.3029 47.5128 74.9929C46.9528 74.6729 46.5128 74.2279 46.1928 73.6579C45.8828 73.0779 45.7278 72.3979 45.7278 71.6179V71.4379C45.7278 70.6579 45.8828 69.9829 46.1928 69.4129C46.5028 68.8329 46.9378 68.3879 47.4978 68.0779C48.0578 67.7579 48.7078 67.5979 49.4478 67.5979C50.1778 67.5979 50.8128 67.7629 51.3528 68.0929C51.8928 68.4129 52.3128 68.8629 52.6128 69.4429C52.9128 70.0129 53.0628 70.6779 53.0628 71.4379V72.0829H47.6478C47.6678 72.5929 47.8578 73.0079 48.2178 73.3279C48.5778 73.6479 49.0178 73.8079 49.5378 73.8079C50.0678 73.8079 50.4578 73.6929 50.7078 73.4629C50.9578 73.2329 51.1478 72.9779 51.2778 72.6979L52.8228 73.5079C52.6828 73.7679 52.4778 74.0529 52.2078 74.3629C51.9478 74.6629 51.5978 74.9229 51.1578 75.1429C50.7178 75.3529 50.1578 75.4579 49.4778 75.4579ZM47.6628 70.6729H51.1428C51.1028 70.2429 50.9278 69.8979 50.6178 69.6379C50.3178 69.3779 49.9228 69.2479 49.4328 69.2479C48.9228 69.2479 48.5178 69.3779 48.2178 69.6379C47.9178 69.8979 47.7328 70.2429 47.6628 70.6729Z" fill="white"/>
<path fill-rule="evenodd" clip-rule="evenodd" d="M11.8419 31.2246C11.7558 31.1805 11.7558 31.0452 11.7558 30.7747V28.9875C11.7558 28.4591 11.7558 28.1948 11.8714 27.9689C11.9869 27.7429 12.2011 27.5882 12.6295 27.2788L31.421 13.7072C32.0165 13.2771 32.3143 13.062 32.6551 13.062C32.9958 13.062 33.2936 13.2771 33.8891 13.7072L41.944 19.5246V15.0311C41.944 14.449 42.4159 13.9772 42.9979 13.9772H45.5344C46.1165 13.9772 46.5883 14.449 46.5883 15.0311V22.8788L52.6806 27.2788C53.109 27.5882 53.3232 27.7429 53.4387 27.9689C53.5543 28.1948 53.5543 28.4591 53.5543 28.9875V30.7747C53.5543 31.0452 53.5543 31.1805 53.4682 31.2246C53.382 31.2686 53.2724 31.1894 53.053 31.031L33.8891 17.1904C33.2936 16.7603 32.9958 16.5452 32.6551 16.5452C32.3143 16.5452 32.0165 16.7603 31.421 17.1904L12.2571 31.031C12.0377 31.1894 11.9281 31.2686 11.8419 31.2246Z" fill="white"/>
<path fill-rule="evenodd" clip-rule="evenodd" d="M16.6337 30.3522C16.4001 30.8061 16.4001 31.3379 16.4001 32.4013V49.0235C16.4001 50.0171 16.4001 50.5139 16.7088 50.8225C17.0175 51.1312 17.5143 51.1312 18.5079 51.1312H21.6101C23.7119 51.1312 24.7628 51.1312 25.4157 50.4783C26.0687 49.8253 26.0687 48.7744 26.0687 46.6726V39.9396C26.0687 38.7755 27.0123 37.8319 28.1764 37.8319H37.1338C38.2979 37.8319 39.2415 38.7755 39.2415 39.9396V46.6726C39.2415 48.7744 39.2415 49.8253 39.8945 50.4783C40.5474 51.1312 41.5983 51.1312 43.7002 51.1312H46.8023C47.7959 51.1312 48.2927 51.1312 48.6014 50.8225C48.91 50.5139 48.91 50.0171 48.91 49.0235V32.4013C48.91 31.3379 48.91 30.8061 48.6764 30.3522C48.4428 29.8983 48.0102 29.5892 47.1448 28.9711L33.8802 19.4964C33.2886 19.0738 32.9928 18.8625 32.6551 18.8625C32.3174 18.8625 32.0216 19.0738 31.43 19.4964L18.1654 28.9711C17.3 29.5892 16.8674 29.8983 16.6337 30.3522Z" fill="white" fill-opacity="0.4"/>
<path d="M16.6337 30.3522L17.6249 30.8623H17.6249L16.6337 30.3522ZM16.7088 50.8225L17.497 50.0344L17.497 50.0344L16.7088 50.8225ZM48.6014 50.8225L49.3896 51.6107H49.3896L48.6014 50.8225ZM48.6764 30.3522L47.6853 30.8623L47.6853 30.8623L48.6764 30.3522ZM47.1448 28.9711L46.4969 29.8781V29.8781L47.1448 28.9711ZM33.8802 19.4964L34.5281 18.5893L34.5281 18.5893L33.8802 19.4964ZM31.43 19.4964L32.0779 20.4034L32.0779 20.4034L31.43 19.4964ZM18.1654 28.9711L18.8133 29.8781H18.8133L18.1654 28.9711ZM39.8945 50.4783L40.6827 49.6901L39.8945 50.4783ZM25.4157 50.4783L24.6276 49.6901L25.4157 50.4783ZM17.5148 32.4013C17.5148 31.8499 17.5159 31.5096 17.5395 31.2487C17.5611 31.01 17.5962 30.9179 17.6249 30.8623L15.6426 29.8422C15.4376 30.2405 15.356 30.6411 15.3192 31.0477C15.2844 31.432 15.2855 31.8893 15.2855 32.4013H17.5148ZM17.5148 49.0235V32.4013H15.2855V49.0235H17.5148ZM17.497 50.0344C17.5843 50.1217 17.5654 50.1947 17.5434 50.0313C17.5172 49.8359 17.5148 49.5518 17.5148 49.0235H15.2855C15.2855 49.4888 15.2831 49.9499 15.334 50.3284C15.3892 50.739 15.5247 51.2148 15.9206 51.6107L17.497 50.0344ZM18.5079 50.0166C17.9796 50.0166 17.6955 50.0142 17.5 49.9879C17.3366 49.966 17.4097 49.9471 17.497 50.0344L15.9206 51.6107C16.3166 52.0067 16.7924 52.1422 17.203 52.1974C17.5815 52.2482 18.0426 52.2459 18.5079 52.2459V50.0166ZM21.6101 50.0166H18.5079V52.2459H21.6101V50.0166ZM24.954 39.9396V46.6726H27.1833V39.9396H24.954ZM28.1764 36.7172C26.3967 36.7172 24.954 38.1599 24.954 39.9396H27.1833C27.1833 39.3911 27.628 38.9465 28.1764 38.9465V36.7172ZM37.1338 36.7172H28.1764V38.9465H37.1338V36.7172ZM40.3562 39.9396C40.3562 38.1599 38.9135 36.7172 37.1338 36.7172V38.9465C37.6823 38.9465 38.1269 39.3911 38.1269 39.9396H40.3562ZM40.3562 46.6726V39.9396H38.1269V46.6726H40.3562ZM46.8023 50.0166H43.7002V52.2459H46.8023V50.0166ZM47.8132 50.0344C47.9005 49.9471 47.9736 49.966 47.8102 49.9879C47.6147 50.0142 47.3306 50.0166 46.8023 50.0166V52.2459C47.2676 52.2459 47.7287 52.2482 48.1072 52.1974C48.5178 52.1422 48.9936 52.0067 49.3896 51.6107L47.8132 50.0344ZM47.7954 49.0235C47.7954 49.5518 47.793 49.8359 47.7667 50.0313C47.7448 50.1947 47.7259 50.1217 47.8132 50.0344L49.3896 51.6107C49.7855 51.2148 49.921 50.739 49.9762 50.3284C50.0271 49.9499 50.0247 49.4888 50.0247 49.0235H47.7954ZM47.7954 32.4013V49.0235H50.0247V32.4013H47.7954ZM47.6853 30.8623C47.7139 30.9179 47.7491 31.01 47.7707 31.2487C47.7943 31.5096 47.7954 31.8499 47.7954 32.4013H50.0247C50.0247 31.8893 50.0258 31.432 49.991 31.0477C49.9542 30.6411 49.8725 30.2405 49.6676 29.8422L47.6853 30.8623ZM46.4969 29.8781C46.9456 30.1987 47.222 30.3973 47.4205 30.5682C47.6022 30.7244 47.6567 30.8066 47.6853 30.8623L49.6676 29.8422C49.4626 29.4438 49.184 29.1445 48.8745 28.8783C48.582 28.6266 48.2093 28.3617 47.7927 28.0641L46.4969 29.8781ZM33.2323 20.4034L46.4969 29.8781L47.7927 28.0641L34.5281 18.5893L33.2323 20.4034ZM32.6551 19.9772C32.5659 19.9772 32.5339 19.9414 32.631 19.9953C32.7531 20.0632 32.9158 20.1773 33.2323 20.4034L34.5281 18.5893C34.253 18.3929 33.972 18.1901 33.7139 18.0467C33.4308 17.8894 33.0821 17.7479 32.6551 17.7479V19.9772ZM32.0779 20.4034C32.3944 20.1773 32.5571 20.0632 32.6792 19.9953C32.7763 19.9414 32.7443 19.9772 32.6551 19.9772V17.7479C32.2281 17.7479 31.8794 17.8894 31.5963 18.0467C31.3382 18.1901 31.0572 18.3929 30.7821 18.5893L32.0779 20.4034ZM18.8133 29.8781L32.0779 20.4034L30.7821 18.5893L17.5175 28.0641L18.8133 29.8781ZM17.6249 30.8623C17.6535 30.8066 17.708 30.7244 17.8897 30.5682C18.0882 30.3973 18.3646 30.1987 18.8133 29.8781L17.5175 28.0641C17.1009 28.3617 16.7282 28.6266 16.4357 28.8783C16.1262 29.1445 15.8476 29.4438 15.6426 29.8422L17.6249 30.8623ZM38.1269 46.6726C38.1269 47.692 38.1245 48.5687 38.2184 49.2673C38.3167 49.998 38.5382 50.6984 39.1063 51.2664L40.6827 49.6901C40.5978 49.6052 40.4929 49.4537 40.4279 48.9702C40.3586 48.4547 40.3562 47.755 40.3562 46.6726H38.1269ZM43.7002 50.0166C42.6177 50.0166 41.9181 50.0142 41.4025 49.9449C40.9191 49.8799 40.7675 49.7749 40.6827 49.6901L39.1063 51.2664C39.6744 51.8345 40.3748 52.0561 41.1055 52.1543C41.8041 52.2482 42.6808 52.2459 43.7002 52.2459V50.0166ZM21.6101 52.2459C22.6295 52.2459 23.5061 52.2482 24.2047 52.1543C24.9354 52.0561 25.6358 51.8345 26.2039 51.2664L24.6276 49.6901C24.5427 49.7749 24.3912 49.8799 23.9077 49.9449C23.3922 50.0142 22.6925 50.0166 21.6101 50.0166V52.2459ZM24.954 46.6726C24.954 47.755 24.9517 48.4547 24.8823 48.9702C24.8173 49.4537 24.7124 49.6052 24.6276 49.6901L26.2039 51.2664C26.772 50.6983 26.9935 49.998 27.0918 49.2673C27.1857 48.5687 27.1833 47.692 27.1833 46.6726H24.954Z" fill="white"/>
</svg>
