<svg width="66" height="90" viewBox="0 0 66 90" fill="none" xmlns="http://www.w3.org/2000/svg">
<path d="M9.82693 75.2479L8.44693 64.7479H10.4119L11.4319 73.8679H11.7019L13.0219 64.7479H16.4419L17.7619 73.8679H18.0319L19.0519 64.7479H21.0169L19.6369 75.2479H16.2169L14.8669 65.9179H14.5969L13.2469 75.2479H9.82693ZM25.7671 75.4579C25.2371 75.4579 24.7621 75.3679 24.3421 75.1879C23.9221 74.9979 23.5871 74.7279 23.3371 74.3779C23.0971 74.0179 22.9771 73.5829 22.9771 73.0729C22.9771 72.5629 23.0971 72.1379 23.3371 71.7979C23.5871 71.4479 23.9271 71.1879 24.3571 71.0179C24.7971 70.8379 25.2971 70.7479 25.8571 70.7479H27.8971V70.3279C27.8971 69.9779 27.7871 69.6929 27.5671 69.4729C27.3471 69.2429 26.9971 69.1279 26.5171 69.1279C26.0471 69.1279 25.6971 69.2379 25.4671 69.4579C25.2371 69.6679 25.0871 69.9429 25.0171 70.2829L23.2771 69.6979C23.3971 69.3179 23.5871 68.9729 23.8471 68.6629C24.1171 68.3429 24.4721 68.0879 24.9121 67.8979C25.3621 67.6979 25.9071 67.5979 26.5471 67.5979C27.5271 67.5979 28.3021 67.8429 28.8721 68.3329C29.4421 68.8229 29.7271 69.5329 29.7271 70.4629V73.2379C29.7271 73.5379 29.8671 73.6879 30.1471 73.6879H30.7471V75.2479H29.4871C29.1171 75.2479 28.8121 75.1579 28.5721 74.9779C28.3321 74.7979 28.2121 74.5579 28.2121 74.2579V74.2429H27.9271C27.8871 74.3629 27.7971 74.5229 27.6571 74.7229C27.5171 74.9129 27.2971 75.0829 26.9971 75.2329C26.6971 75.3829 26.2871 75.4579 25.7671 75.4579ZM26.0971 73.9279C26.6271 73.9279 27.0571 73.7829 27.3871 73.4929C27.7271 73.1929 27.8971 72.7979 27.8971 72.3079V72.1579H25.9921C25.6421 72.1579 25.3671 72.2329 25.1671 72.3829C24.9671 72.5329 24.8671 72.7429 24.8671 73.0129C24.8671 73.2829 24.9721 73.5029 25.1821 73.6729C25.3921 73.8429 25.6971 73.9279 26.0971 73.9279ZM33.1505 75.2479V64.7479H35.0405V75.2479H33.1505ZM38.1564 75.2479V64.7479H40.0464V75.2479H38.1564ZM46.5523 75.4579C45.8123 75.4579 45.1573 75.3029 44.5873 74.9929C44.0273 74.6729 43.5873 74.2279 43.2673 73.6579C42.9573 73.0779 42.8023 72.3979 42.8023 71.6179V71.4379C42.8023 70.6579 42.9573 69.9829 43.2673 69.4129C43.5773 68.8329 44.0123 68.3879 44.5723 68.0779C45.1323 67.7579 45.7823 67.5979 46.5223 67.5979C47.2523 67.5979 47.8873 67.7629 48.4273 68.0929C48.9673 68.4129 49.3873 68.8629 49.6873 69.4429C49.9873 70.0129 50.1373 70.6779 50.1373 71.4379V72.0829H44.7223C44.7423 72.5929 44.9323 73.0079 45.2923 73.3279C45.6523 73.6479 46.0923 73.8079 46.6123 73.8079C47.1423 73.8079 47.5323 73.6929 47.7823 73.4629C48.0323 73.2329 48.2223 72.9779 48.3523 72.6979L49.8973 73.5079C49.7573 73.7679 49.5523 74.0529 49.2823 74.3629C49.0223 74.6629 48.6723 74.9229 48.2323 75.1429C47.7923 75.3529 47.2323 75.4579 46.5523 75.4579ZM44.7373 70.6729H48.2173C48.1773 70.2429 48.0023 69.8979 47.6923 69.6379C47.3923 69.3779 46.9973 69.2479 46.5073 69.2479C45.9973 69.2479 45.5923 69.3779 45.2923 69.6379C44.9923 69.8979 44.8073 70.2429 44.7373 70.6729ZM55.442 75.2479C54.952 75.2479 54.552 75.0979 54.242 74.7979C53.942 74.4879 53.792 74.0779 53.792 73.5679V69.3679H51.932V67.8079H53.792V65.4979H55.682V67.8079H57.722V69.3679H55.682V73.2379C55.682 73.5379 55.822 73.6879 56.102 73.6879H57.542V75.2479H55.442Z" fill="#767676"/>
<circle cx="43.9849" cy="35.2516" r="1.70533" fill="#767676" stroke="#767676" stroke-width="1.90913"/>
<path d="M48.9246 31.0715H41.3704C40.0861 31.0715 39.0449 32.1127 39.0449 33.397V37.1057C39.0449 38.3901 40.0861 39.4312 41.3704 39.4312H48.9246" stroke="#767676" stroke-width="2.32214"/>
<path d="M17.6706 21.7836V21.7836C17.6706 20.5737 18.6514 19.593 19.8613 19.593L44.3387 19.593C45.8376 19.593 46.8881 21.0723 46.3941 22.4875V22.4875C46.089 23.3615 45.2645 23.947 44.3387 23.947H38.5699M17.6706 21.7836V21.7836C17.6706 22.9784 18.6392 23.947 19.834 23.947L42.0531 23.947C44.9501 23.947 46.3986 23.947 47.4153 24.6825C47.7492 24.924 48.0424 25.2172 48.2839 25.5511C49.0195 26.5679 49.0195 28.0164 49.0195 30.9134V30.9134L49.0195 37.8798V37.8798C49.0195 40.7768 49.0195 42.2253 48.2839 43.2421C48.0424 43.5759 47.7492 43.8691 47.4153 44.1106C46.3986 44.8462 44.9501 44.8462 42.0531 44.8462L25.4223 44.8462C21.7682 44.8462 19.9411 44.8462 18.8058 43.711C17.6706 42.5758 17.6706 40.7487 17.6706 37.0945L17.6706 21.7836Z" stroke="#767676" stroke-width="2.32214"/>
</svg>
