<svg width="211" height="211" viewBox="0 0 211 211" fill="none" xmlns="http://www.w3.org/2000/svg">
<g clip-path="url(#clip0_18_637)">
<path d="M105.122 200.311C157.693 200.311 200.311 157.693 200.311 105.122C200.311 52.5505 157.693 9.93286 105.122 9.93286C52.5505 9.93286 9.93286 52.5505 9.93286 105.122C9.93286 157.693 52.5505 200.311 105.122 200.311Z" fill="#2D92DD" stroke="#3DA4F1" stroke-width="19.8655"/>
<path d="M106.637 70V155.5M106.637 70H60.7541C58.6492 70 57.3154 72.246 58.3677 74.069C68.1778 91.0647 105.449 155.5 106.637 155.5M106.637 70H151.868C153.966 70 155.3 72.2325 154.262 74.0555C144.6 91.0305 107.825 155.5 106.637 155.5" stroke="white" stroke-width="9.576"/>
</g>
<defs>
<clipPath id="clip0_18_637">
<rect width="211" height="211" fill="white"/>
</clipPath>
</defs>
</svg>
