<svg width="26" height="19" viewBox="0 0 26 19" fill="none" xmlns="http://www.w3.org/2000/svg">
<path d="M8.28836 11.9216C11.207 11.8139 16.9471 12.7611 16.5579 17.4106C16.4282 18.1856 15.8553 18.3793 15.585 18.3793H8.28836L0.991716 18.3793C0.72147 18.3793 0.148547 18.1856 0.0188281 17.4106C-0.370327 12.7611 5.3697 11.8139 8.28836 11.9216Z" fill="#00E5FF"/>
<path d="M12.8285 5.14101C12.8285 7.63756 10.7958 9.66142 8.28836 9.66142C5.78091 9.66142 3.74822 7.63756 3.74822 5.14101C3.74822 2.64446 5.78091 0.620605 8.28836 0.620605C10.7958 0.620605 12.8285 2.64446 12.8285 5.14101Z" fill="#00E5FF"/>
<path d="M17.5234 12.2332C20.442 12.1256 25.955 13.1905 25.955 16.8159C25.955 17.118 25.773 17.7223 25.0447 17.7223H19.5829V16.8159C19.5829 14.5501 18.1558 12.7789 17.5234 12.2332Z" fill="#00E5FF"/>
<path d="M21.8587 6.61951C21.8587 8.49662 20.3303 10.0183 18.445 10.0183C16.5597 10.0183 15.0314 8.49662 15.0314 6.61951C15.0314 4.74241 16.5597 3.22071 18.445 3.22071C20.3303 3.22071 21.8587 4.74241 21.8587 6.61951Z" fill="#00E5FF"/>
</svg>
